<svg xmlns="http://www.w3.org/2000/svg" viewBox="0 0 1024 1024">
<path d="M894.506667 880.213333H131.2a22.613333 22.613333 0 0 1 0-45.013333h763.306667a22.613333 22.613333 0 0 1 0 45.013333zM892.16 204.586667H128a22.613333 22.613333 0 1 1 0-45.013334h764.16a22.613333 22.613333 0 0 1 0 45.013334z" fill="currentColor"></path><path d="M176.426667 923.52a22.4 22.4 0 0 1-21.333334-22.613333V135.466667a22.4 22.4 0 1 1 44.8 0v765.44a22.4 22.4 0 0 1-23.466666 22.613333zM849.92 923.52a22.4 22.4 0 0 1-22.4-22.613333V135.466667a22.4 22.4 0 1 1 44.8 0v765.44a22.4 22.4 0 0 1-22.4 22.613333z" fill="currentColor"></path><path d="M271.146667 415.786667a22.613333 22.613333 0 0 1-16-38.4l123.733333-124.16a22.4 22.4 0 1 1 31.786667 31.786666l-123.733334 124.16a21.333333 21.333333 0 0 1-15.786666 6.613334zM275.626667 776.32a22.4 22.4 0 0 1-15.786667-6.613333 22.826667 22.826667 0 0 1 0-32l469.333333-471.04a22.613333 22.613333 0 0 1 31.786667 0 22.826667 22.826667 0 0 1 0 32l-469.333333 471.04a22.4 22.4 0 0 1-16 6.613333zM472.533333 756.48a23.466667 23.466667 0 0 1-16-6.613333 22.613333 22.613333 0 0 1 0-31.786667l263.253334-264.106667a22.4 22.4 0 1 1 31.786666 31.786667L488.32 749.866667a23.253333 23.253333 0 0 1-15.786667 6.613333zM287.146667 580.693333a22.613333 22.613333 0 0 1-16-38.4L534.613333 277.333333a21.333333 21.333333 0 0 1 31.573334 0 22.826667 22.826667 0 0 1 0 32L302.933333 574.08a21.333333 21.333333 0 0 1-15.786666 6.613333zM641.92 787.626667a21.333333 21.333333 0 0 1-15.786667-6.613334 21.333333 21.333333 0 0 1 0-31.786666l123.52-124.16a22.613333 22.613333 0 0 1 31.786667 0 22.826667 22.826667 0 0 1 0 32l-123.733333 123.946666a21.333333 21.333333 0 0 1-15.786667 6.613334z" fill="#57B8FF"></path>
</svg>

