<svg xmlns="http://www.w3.org/2000/svg" viewBox="0 0 1024 1024">
    <!-- 左箭头 (◄) -->
    <path d="M380.8 554.666667
             H128
             a21.333333 21.333333 0 1 1 0-42.666667
             h252.8
             a21.333333 21.333333 0 0 1 0 42.666667
             z" fill="currentColor"/>
    <path d="M366.933333 429.653333
             v207.36
             L470.4 533.333333
             l-103.466667-103.68
             z" fill="currentColor"/>

    <!-- 右箭头 (►) -->
    <path d="M896 554.666667
             H644.906667
             a21.333333 21.333333 0 0 1 0-42.666667
             H896
             a21.333333 21.333333 0 0 1 0 42.666667
             z" fill="currentColor"/>
    <path d="M658.773333 637.013333
             v-207.36
             L555.093333 533.333333
             l103.68 103.68
             z" fill="currentColor"/>

    <!-- 上箭头 (▲) -->
    <path d="M494.666667 380.8
             V128
             a21.333333 21.333333 0 1 1 42.666667 0
             V380.8
             a21.333333 21.333333 0 0 1-42.666667 0
             z" fill="currentColor"/>
    <path d="M409.653333 366.933333
             h207.36
             L513.333333 470.4
             l-103.68-103.466667
             z" fill="currentColor"/>

    <!-- 下箭头 (▼) -->
    <path d="M494.666667 896
             V644.906667
             a21.333333 21.333333 0 0 1 42.666667 0
             V896
             a21.333333 21.333333 0 0 1-42.666667 0
             z" fill="currentColor"/>
    <path d="M617.013333 658.773333
             h-207.36
             L513.333333 555.093333
             l103.68 103.68
             z" fill="currentColor"/>
</svg>




