<svg xmlns="http://www.w3.org/2000/svg" viewBox="0 0 1024 1024">
<path d="M905.813333 902.4H141.653333a21.333333 21.333333 0 0 1 0-42.666667h764.16a21.333333 21.333333 0 0 1 0 42.666667z" fill="#57B8FF"></path><path d="M918.4 403.84L648.32 132.266667a42.666667 42.666667 0 0 0-60.16 0L167.893333 554.666667a42.666667 42.666667 0 0 0 0 60.373333l163.2 164.053333a193.066667 193.066667 0 0 0 273.92 0l313.386667-314.88a42.666667 42.666667 0 0 0 0-60.373333z m-296.106667 275.2l-70.826666 71.04a117.12 117.12 0 0 1-166.4 0l-159.786667-160.64a25.813333 25.813333 0 0 1 0-36.48l135.68-136.533333a25.813333 25.813333 0 0 1 36.48 0l224.853333 225.92a26.24 26.24 0 0 1 0 36.693333z" fill="currentColor"></path>
</svg>

