<svg xmlns="http://www.w3.org/2000/svg" viewBox="0 0 1024 1024">
    <path d="M130.133333 258.56h295.04v41.6H130.133333z" fill="#57B8FF"></path>
    <path d="M136.746667 229.546667v101.973333L85.333333 279.466667l51.413334-49.92zM418.986667 229.546667v101.973333l51.2-52.053333-51.2-49.92zM260.693333 139.733333h42.666667v287.786667h-42.666667z" fill="#57B8FF"></path>
    <path d="M228.693333 421.333333h104.746667l-51.413333 49.92-53.333334-49.92zM228.693333 146.133333h104.746667L282.026667 96l-53.333334 50.133333z" fill="#57B8FF"></path>
    <path d="M673.493333 928h-72.746666c-106.666667 0-166.826667-93.866667-194.56-183.466667v-56.32c0-75.093333 100.48-185.6 143.146666-135.466666h277.333334A46.72 46.72 0 0 1 874.666667 598.613333v139.733334c-34.346667 112.426667-90.026667 189.653333-201.173334 189.653333z" fill="currentColor"></path>
    <path d="M469.333333 830.08a50.56 50.56 0 0 1-38.4-27.093333l-138.24-302.506667c-12.8-29.226667 25.813333-54.186667 68.48-43.733333a50.56 50.56 0 0 1 38.613334 27.093333l138.88 302.293333c12.8 29.226667-25.6 54.186667-69.333334 43.946667zM534.4 621.44A42.666667 42.666667 0 0 1 490.666667 586.026667l-35.413334-333.653334a40.533333 40.533333 0 0 1 38.613334-43.733333 42.666667 42.666667 0 0 1 44.8 35.413333l34.346666 333.653334a40.746667 40.746667 0 0 1-38.613333 43.733333zM626.346667 621.44a40.106667 40.106667 0 0 1-40.533334-39.68l-6.4-421.12a40.533333 40.533333 0 0 1 42.666667-39.68 40.32 40.32 0 0 1 40.746667 39.68l6.4 421.12a40.746667 40.746667 0 0 1-42.88 39.68zM725.333333 615.253333a42.666667 42.666667 0 0 1-38.4-42.666666l21.333334-352.426667a40.746667 40.746667 0 0 1 45.013333-37.333333 42.666667 42.666667 0 0 1 38.4 42.666666l-21.333333 352.426667A39.893333 39.893333 0 0 1 725.333333 615.253333zM829.44 621.44a44.373333 44.373333 0 0 1-36.266667-48l19.2-204.373333a44.586667 44.586667 0 0 1 47.146667-42.666667A44.373333 44.373333 0 0 1 896 375.466667l-19.2 204.373333a47.36 47.36 0 0 1-47.36 41.6z" fill="currentColor"></path>
    <path d="M405.973333 700.8a231.04 208.426667 0 1 0 462.08 0 231.04 208.426667 0 1 0-462.08 0Z" fill="currentColor"></path>
</svg>

