<svg xmlns="http://www.w3.org/2000/svg" viewBox="0 0 1024 1024">
  <path d="M512 228.48c186.453333 0 337.92 129.706667 337.92 289.28S698.026667 807.04 512 807.04 173.44 677.12 173.44 517.76 325.12 228.48 512 228.48m0-41.386667c-208.64 0-377.813333 148.053333-377.813333 330.666667S302.933333 848.213333 512 848.213333s377.813333-147.84 377.813333-330.453333S720.213333 187.093333 512 187.093333z" fill="currentColor"></path><path d="M92.373333 456.106667m19.413334 0l80.426666 0q19.413333 0 19.413334 19.413333l0 85.12q0 19.413333-19.413334 19.413333l-80.426666 0q-19.413333 0-19.413334-19.413333l0-85.12q0-19.413333 19.413334-19.413333Z" fill="#57B8FF"></path><path d="M804.906667 455.68m19.413333 0l80.426667 0q19.413333 0 19.413333 19.413333l0 85.12q0 19.413333-19.413333 19.413334l-80.426667 0q-19.413333 0-19.413333-19.413334l0-85.12q0-19.413333 19.413333-19.413333Z" fill="#57B8FF"></path><path d="M452.053333 763.946667m19.413334 0l80.426666 0q19.413333 0 19.413334 19.413333l0 85.12q0 19.413333-19.413334 19.413333l-80.426666 0q-19.413333 0-19.413334-19.413333l0-85.12q0-19.413333 19.413334-19.413333Z" fill="#57B8FF"></path>
</svg>

