<svg xmlns="http://www.w3.org/2000/svg" viewBox="0 0 1024 1024">
<path d="M512 151.68 A366.293333 366.293333 0 1 1 146.133333 517.973333 366.72 366.72 0 0 1 512 151.68 M512 106.666667a411.946667 411.946667 0 1 0 412.16 411.306666A411.946667 411.946667 0 0 0 512 106.666667z" fill="currentColor"></path>
<path d="M458.88 869.333333m20.266667 0l87.466666 0q20.266667 0 20.266667 20.266667l0 87.466667q0 20.266667-20.266667 20.266666l-87.466666 0q-20.266667 0-20.266667-20.266666l0-87.466667q0-20.266667 20.266667-20.266667Z" fill="#57B8FF"></path>
<path d="M453.546667 68.053333m18.773333 0l80.213333 0q18.773333 0 18.773334 18.773334l0 80.213333q0 18.773333-18.773334 18.773333l-80.213333 0q-18.773333 0-18.773333-18.773333l0-80.213333q0-18.773333 18.773333-18.773334Z" fill="#57B8FF"></path>
<path d="M836.053333 459.093333m18.773334 0l80.213333 0q18.773333 0 18.773333 18.773334l0 80.213333q0 18.773333-18.773333 18.773333l-80.213333 0q-18.773333 0-18.773334-18.773333l0-80.213333q0-18.773333 18.773334-18.773334Z" fill="#57B8FF"></path>
<path d="M68.053333 464.426667m18.773334 0l80.213333 0q18.773333 0 18.773333 18.773333l0 80.213333q0 18.773333-18.773333 18.773334l-80.213333 0q-18.773333 0-18.773334-18.773334l0-80.213333q0-18.773333 18.773334-18.773333Z" fill="#57B8FF"></path>
</svg>

