<svg xmlns="http://www.w3.org/2000/svg" viewBox="0 0 1024 1024">
<path d="M758.4 866.133333H283.733333a21.333333 21.333333 0 0 1-20.053333-14.506666L116.906667 415.146667a21.333333 21.333333 0 0 1 7.893333-24.32l384-269.653334a21.333333 21.333333 0 0 1 24.533333 0l384 269.653334a21.333333 21.333333 0 0 1 8.106667 24.32L778.666667 851.626667a21.333333 21.333333 0 0 1-20.266667 14.506666zM298.666667 823.466667h444.373333l136.746667-406.826667L521.173333 164.693333 162.346667 416.64z" fill="currentColor">
</path>
<path d="M456.746667 445.653333m20.053333 0l88.533333 0q20.053333 0 20.053334 20.053334l0 84.266666q0 20.053333-20.053334 20.053334l-88.533333 0q-20.053333 0-20.053333-20.053334l0-84.266666q0-20.053333 20.053333-20.053334Z" fill="#57B8FF"></path>
<path d="M193.92 760.96m20.053333 0l88.533334 0q20.053333 0 20.053333 20.053333l0 84.266667q0 20.053333-20.053333 20.053333l-88.533334 0q-20.053333 0-20.053333-20.053333l0-84.266667q0-20.053333 20.053333-20.053333Z" fill="#57B8FF"></path>
</svg>

