<svg xmlns="http://www.w3.org/2000/svg" viewBox="0 0 1024 1024">
<path d="M204.373333 809.173333a21.333333 21.333333 0 0 1-13.866666-5.546666 17.066667 17.066667 0 0 1 0-25.6L806.4 208.853333a21.333333 21.333333 0 0 1 27.946667 0 17.28 17.28 0 0 1 0 25.813334L218.453333 803.626667a21.333333 21.333333 0 0 1-14.08 5.546666z" fill="currentColor"></path><path d="M734.72 157.013333m23.68 0l101.12 0q23.68 0 23.68 23.68l0 101.12q0 23.68-23.68 23.68l-101.12 0q-23.68 0-23.68-23.68l0-101.12q0-23.68 23.68-23.68Z" fill="#57B8FF"></path><path d="M127.573333 726.826667m23.68 0l101.12 0q23.68 0 23.68 23.68l0 101.12q0 23.68-23.68 23.68l-101.12 0q-23.68 0-23.68-23.68l0-101.12q0-23.68 23.68-23.68Z" fill="#57B8FF"></path>
</svg>
