<svg xmlns="http://www.w3.org/2000/svg" viewBox="0 0 1024 1024">
    <path d="M137.386667 826.666667
    H672c3.626667 0 245.333333-16 245.333333-323.2 0-100.693333-26.666667-179.2-80.853333-234.666667
    a274.986667 274.986667 0 0 0-187.733333-76.16
    l1.28 42.666667v-21.333334 21.333334a236.586667 236.586667 0 0 1 158.08 64
    c45.653333 46.08 68.48 114.133333 68.053333 202.666666 0 265.386667-197.546667 280.533333-205.866667 280.96
    h-533.333333z" fill="currentColor"></path>
    <path d="M231.466667 869.333333m-20.053334 0l-83.84 0q-20.053333 0-20.053333-20.053333l0-87.253333q0-20.053333 20.053333-20.053334l83.84 0q20.053333 0 20.053334 20.053334l0 87.253333q0 20.053333-20.053334 20.053333Z" fill="#57B8FF"></path>
    <path d="M677.333333 869.333333m-20.053333 0l-83.84 0q-20.053333 0-20.053333-20.053333l0-87.253333q0-20.053333 20.053333-20.053334l83.84 0q20.053333 0 20.053333 20.053334l0 87.253333q0 20.053333-20.053333 20.053333Z" fill="#57B8FF"></path>
    <path d="M683.946667 271.36m-20.053334 0l-83.84 0q-20.053333 0-20.053333-20.053333l0-87.253334q0-20.053333 20.053333-20.053333l83.84 0q20.053333 0 20.053334 20.053333l0 87.253334q0 20.053333-20.053334 20.053333Z" fill="#57B8FF"></path>
</svg>

