<svg xmlns="http://www.w3.org/2000/svg" viewBox="0 0 1024 1024">
   <path d="M824.533333 814.08H203.946667a62.72 62.72 0 0 1-61.013334-64V266.88a62.72 62.72 0 0 1 61.013334-64h620.586666a62.72 62.72 0 0 1 61.013334 64v482.986667a62.72 62.72 0 0 1-61.013334 64.213333zM203.946667 244.693333a21.333333 21.333333 0 0 0-21.333334 21.333334v483.84a21.333333 21.333333 0 0 0 21.333334 22.4h620.586666a21.333333 21.333333 0 0 0 21.333334-22.4V266.88a21.333333 21.333333 0 0 0-21.333334-21.333333z" fill="currentColor"></path><path d="M105.6 726.4m19.413333 0l80.853334 0q19.413333 0 19.413333 19.413333l0 86.826667q0 19.413333-19.413333 19.413333l-80.853334 0q-19.413333 0-19.413333-19.413333l0-86.826667q0-19.413333 19.413333-19.413333Z" fill="#57B8FF"></path><path d="M796.8 169.386667m19.413333 0l80.853334 0q19.413333 0 19.413333 19.413333l0 86.826667q0 19.413333-19.413333 19.413333l-80.853334 0q-19.413333 0-19.413333-19.413333l0-86.826667q0-19.413333 19.413333-19.413333Z" fill="#57B8FF"></path>
</svg>

