<svg xmlns="http://www.w3.org/2000/svg" viewBox="0 0 1024 1024">
    <path d="M710.613333 892.8a21.333333 21.333333 0 0 1-21.333333-21.333333 280.32 280.32 0 0 0-561.28 0 21.333333 21.333333 0 0 1-42.666667 0 322.986667 322.986667 0 0 1 645.973334 0 21.333333 21.333333 0 0 1-20.693334 21.333333z" fill="currentColor"></path><path d="M401.706667 565.76A238.293333 238.293333 0 1 1 640 327.68a238.506667 238.506667 0 0 1-238.293333 238.08z m0-433.706667A195.626667 195.626667 0 1 0 597.333333 327.68a195.84 195.84 0 0 0-195.626666-195.626667z" fill="currentColor"></path><path d="M561.706667 513.066667m44.16 0l288.213333 0q44.16 0 44.16 44.16l0 333.44q0 44.16-44.16 44.16l-288.213333 0q-44.16 0-44.16-44.16l0-333.44q0-44.16 44.16-44.16Z" fill="#57B8FF"></path><path d="M658.986667 607.146667m-21.546667 0a21.546667 21.546667 0 1 0 43.093333 0 21.546667 21.546667 0 1 0-43.093333 0Z" fill="currentColor"></path><path d="M700.8 586.24m20.053333 0l98.346667 0q20.053333 0 20.053333 20.053333l0 2.986667q0 20.053333-20.053333 20.053333l-98.346667 0q-20.053333 0-20.053333-20.053333l0-2.986667q0-20.053333 20.053333-20.053333Z" fill="currentColor"></path><path d="M659.413333 715.52m-21.546666 0a21.546667 21.546667 0 1 0 43.093333 0 21.546667 21.546667 0 1 0-43.093333 0Z" fill="currentColor"></path><path d="M701.44 694.826667m21.546667 0l133.76 0q21.546667 0 21.546666 21.546666l0 0q0 21.546667-21.546666 21.546667l-133.76 0q-21.546667 0-21.546667-21.546667l0 0q0-21.546667 21.546667-21.546666Z" fill="currentColor"></path><path d="M660.053333 824.106667m-21.546666 0a21.546667 21.546667 0 1 0 43.093333 0 21.546667 21.546667 0 1 0-43.093333 0Z" fill="currentColor"></path><path d="M702.08 803.2m21.546667 0l152.96 0q21.546667 0 21.546666 21.546667l0 0q0 21.546667-21.546666 21.546666l-152.96 0q-21.546667 0-21.546667-21.546666l0 0q0-21.546667 21.546667-21.546667Z" fill="currentColor"></path>
</svg>

