<svg xmlns="http://www.w3.org/2000/svg" viewBox="0 0 1024 1024">
    <path d="M146.346667 842.026667l-45.44-3.413334c0-10.026667 1.28-21.333333 1.706666-36.48 4.053333-101.12 9.813333-290.133333 147.2-446.72 153.173333-174.933333 400.853333-174.506667 599.253334-174.506666h21.333333v45.44h-21.333333c-189.866667 0-425.386667 0-565.12 159.146666-126.506667 144.64-132.693333 322.56-135.893334 418.346667-0.426667 14.72-1.066667 28.16-1.706666 38.186667z" fill="currentColor"></path>
    <path d="M63.573333 788.48m21.546667 0l93.226667 0q21.546667 0 21.546666 21.546667l0 93.226666q0 21.546667-21.546666 21.546667l-93.226667 0q-21.546667 0-21.546667-21.546667l0-93.226666q0-21.546667 21.546667-21.546667Z" fill="#57B8FF"></path>
    <path d="M256.426667 256.213333m21.546666 0l93.226667 0q21.546667 0 21.546667 21.546667l0 93.226667q0 21.546667-21.546667 21.546666l-93.226667 0q-21.546667 0-21.546666-21.546666l0-93.226667q0-21.546667 21.546666-21.546667Z" fill="#57B8FF"></path>
    <path d="M823.253333 135.466667m21.546667 0l93.226667 0q21.546667 0 21.546666 21.546666l0 93.226667q0 21.546667-21.546666 21.546667l-93.226667 0q-21.546667 0-21.546667-21.546667l0-93.226667q0-21.546667 21.546667-21.546666Z" fill="#57B8FF"></path>
</svg>

