<svg xmlns="http://www.w3.org/2000/svg" viewBox="0 0 1024 1024">
   <path d="M847.786667 533.333333
   H174.08a21.333333 21.333333 0 1 1 0-42.666666
   h673.706667
   a21.333333 21.333333 0 0 1 0 42.666666
   z" fill="currentColor"></path>
   <path d="M187.946667 408.32
   v207.36
   L84.266667 512
   l103.68-103.68
   z
   M833.92 408.32
   v207.36
   L937.6 512
   l-103.68-103.68
   z" fill="currentColor"></path>
   <path d="M512 870.186667
   a21.333333 21.333333 0 0 1-21.333333-21.333334
   V175.146667a21.333333 21.333333 0 0 1 42.666666 0
   v673.706666a21.333333 21.333333 0 0 1-21.333333 21.333334
   z" fill="currentColor"></path>
   <path d="M407.253333 834.986667
   h207.36L510.933333 938.666667
   l-103.68-103.68
   z
   M407.253333 189.013333
   h207.36
   L510.933333 85.333333
   l-103.68 103.68
   z" fill="currentColor"></path>
</svg>

