<svg xmlns="http://www.w3.org/2000/svg" viewBox="0 0 1024 1024">
  <path d="M512 912a380.586667 380.586667 0 0 1-12.8-760.96 21.333333 21.333333 0 0 1 0 42.666667A337.92 337.92 0 1 0 853.333333 531.413333a334.08 334.08 0 0 0-42.666666-162.346666 21.333333 21.333333 0 0 1 8.32-29.013334 21.333333 21.333333 0 0 1 29.013333 8.32A378.026667 378.026667 0 0 1 896 531.413333a384 384 0 0 1-384 380.586667z" fill="currentColor"></path><path d="M493.013333 69.333333l-15.146666 206.933334 110.933333-96-95.786667-110.933334z" fill="currentColor"></path>
</svg>

