<svg xmlns="http://www.w3.org/2000/svg" viewBox="0 0 1024 1024">
<path d="M241.92 307.626667m-149.333333 0a149.333333 149.333333 0 1 0 298.666666 0 149.333333 149.333333 0 1 0-298.666666 0Z" fill="currentColor"></path><path d="M578.56 746.666667a149.333333 149.333333 0 0 1 36.053333-97.066667 149.333333 149.333333 0 1 0 0 194.133333A149.333333 149.333333 0 0 1 578.56 746.666667z" fill="#57B8FF"></path><path d="M763.946667 746.88m-149.333334 0a149.333333 149.333333 0 1 0 298.666667 0 149.333333 149.333333 0 1 0-298.666667 0Z" fill="#57B8FF"></path><path d="M725.333333 452.693333a23.893333 23.893333 0 0 1-23.893333-23.893333v-72.96c0-19.413333-28.373333-40.96-68.906667-40.96H490.666667a23.893333 23.893333 0 1 1 0-47.573333h141.44c65.28 0 116.48 38.826667 116.48 88.533333v72.96A23.893333 23.893333 0 0 1 725.333333 452.693333z" fill="currentColor"></path><path d="M630.186667 401.066667l94.933333 164.266666 94.72-164.266666h-189.653333z" fill="currentColor"></path>
</svg>
