<svg xmlns="http://www.w3.org/2000/svg" viewBox="0 0 1024 1024">
<path d="M853.333333 362.666667h-40.533333v-98.133334a19.626667 19.626667 0 0 0-18.773333-21.333333H586.666667v-42.666667h207.36a61.653333 61.653333 0 0 1 60.16 64zM706.986667 887.04H159.573333a61.226667 61.226667 0 0 1-58.24-64V198.613333a61.226667 61.226667 0 0 1 58.24-64h323.413334v42.666667H159.573333a19.413333 19.413333 0 0 0-16.64 21.333333v624.64a19.413333 19.413333 0 0 0 16.64 21.333334h547.413334z" fill="currentColor"></path><path d="M721.493333 889.173333H120.106667c-22.826667 0-29.013333-18.986667-16.64-44.586666L306.773333 448a80.64 80.64 0 0 1 62.08-44.8h601.386667c22.826667 0 29.013333 19.2 16.64 44.8l-203.306667 396.586667a81.92 81.92 0 0 1-62.08 44.586666z" fill="#57B8FF"></path><path d="M482.986667 134.826667l124.373333 72.32-20.693333 36.266666-114.133334-66.133333" fill="currentColor"></path>
</svg>
